<svg xmlns="http://www.w3.org/2000/svg" viewBox="0 0 430 430">
  <defs>
    <style>
      .cls-1 {
        isolation: isolate;
      }

      .cls-2, .cls-6 {
        fill: #f9c9c0;
      }

      .cls-3 {
        fill: #b26836;
      }

      .cls-4, .cls-5 {
        fill: #4bb3fd;
      }

      .cls-5, .cls-6 {
        mix-blend-mode: multiply;
        opacity: 0.5;
      }

      .cls-7 {
        fill: #ebe6ef;
      }
    </style>
  </defs>
  <g class="cls-1">
    <g id="Warstwa_1" data-name="Warstwa 1">
      <g>
        <path class="cls-2" d="M274.16,138.09v29.34A59,59,0,0,1,245.48,218v18.22c0,.12,0,.25,0,.39a0,0,0,0,1,0,0,.11.11,0,0,1,0,.06h11a76.45,76.45,0,0,1,13.28,1.15,49.92,49.92,0,0,1-49.28,42h-12a49.92,49.92,0,0,1-49.25-41.78h0a74.43,74.43,0,0,1,14.18-1.33h8.65a.11.11,0,0,1,0-.06,0,0,0,0,1,0,0c0-.14,0-.27,0-.39v-19a58.91,58.91,0,0,1-27.36-49.79V138.5c71.26-16.13,82.8-59,82.8-59,32.49,16.94,36.26,46.13,36.6,55.54C274.23,137,274.16,138.09,274.16,138.09Z"/>
        <path class="cls-2" d="M269.8,237.89a49.92,49.92,0,0,1-49.28,42h-12a49.94,49.94,0,0,1-46.17-30.91h0c-.18-.43-.35-.86-.52-1.3-.33-.87-.63-1.76-.92-2.65s-.54-1.8-.77-2.72c-.11-.4-.21-.81-.3-1.22s-.23-1-.33-1.58-.17-.92-.25-1.39h0a74.43,74.43,0,0,1,14.18-1.33h8.65V217.23a58.76,58.76,0,0,0,31.62,9.18h1.44a58.72,58.72,0,0,0,30.3-8.37v18.7h11A76.45,76.45,0,0,1,269.8,237.89Z"/>
        <path class="cls-3" d="M301.11,210.79c0-.76-.08-1.53-.13-2.29l0-.51c0-.55-.06-1.09-.1-1.64q-.25-3.93-.58-7.94-.24-3-.53-6.1c-.16-1.78-.34-3.57-.53-5.38-.17-1.64-.34-3.28-.53-4.94,0-.35-.07-.71-.12-1.06-.17-1.6-.36-3.2-.56-4.81a.88.88,0,0,0,0-.16c-.25-2.14-.53-4.28-.81-6.44-.25-1.89-.5-3.79-.77-5.7-.16-1.17-.33-2.33-.5-3.5-.73-5.12-1.54-10.31-2.4-15.55-.19-1.18-.39-2.37-.59-3.56q-1.05-6.33-2.23-12.75c-2.93-16.52-7-30.13-12.82-40.91h0a62.75,62.75,0,0,0-9.59-13.37c-11.41-12-27.51-17.89-50.67-18.07-28.21,0-49,14.42-62.45,41.44h0c-10.42,20.92-16.46,49.39-18.19,84.57-.38,3.39-.72,6.7-1,9.93-.21,2.16-.41,4.28-.59,6.38-.35,4-.64,7.92-.88,11.78,0,.86-.11,1.72-.15,2.58-.08,1.33-.15,2.66-.21,4q-.14,3-.23,5.95c0,1-.05,2-.07,3s0,2.21-.06,3.32c0,.87,0,1.74,0,2.61,0,5.33.07,10.69.31,16.18a75.4,75.4,0,0,1,25.25-9.72h0a74.43,74.43,0,0,1,14.18-1.33h8.65V217.23h0a58.91,58.91,0,0,1-27.36-49.79V138.5c71.26-16.13,82.8-59,82.8-59,32.49,16.94,36.26,46.13,36.6,55.54v32.36A59,59,0,0,1,245.48,218v18.7h11a76.45,76.45,0,0,1,13.28,1.15,75.42,75.42,0,0,1,31.32,13.34q.13-2.14.24-4.32c0-.73.07-1.46.1-2.19q.27-6.42.26-13.11Q301.7,221.49,301.11,210.79Z"/>
        <path class="cls-4" d="M332.36,312.58v30.35a14.76,14.76,0,0,1-14.76,14.76H296.67c-36.91,2.9-39.35,16.19-57.48,16.19a1.56,1.56,0,0,1-.31,0H188.72c-18.12,0-20.52-13.32-57.6-16.21H112.4a14.75,14.75,0,0,1-14.76-14.76V312.58c0-.65,0-1.3,0-1.94,0-.38,0-.75,0-1.12s0-.52,0-.78c0-.94.11-1.89.19-2.83l.09-1c.11-1.1.24-2.2.4-3.28,0-.38.11-.75.17-1.12.1-.64.21-1.28.32-1.91.07-.37.14-.73.22-1.1s.16-.81.25-1.21a.43.43,0,0,0,0-.11c.11-.49.22-1,.34-1.45.16-.68.33-1.36.52-2q.12-.48.27-1c.24-.86.5-1.71.77-2.56l.31-.94.21-.6c.22-.64.45-1.27.69-1.9.13-.37.27-.73.41-1.09.23-.58.47-1.14.71-1.71s.47-1.1.72-1.65a73.3,73.3,0,0,1,3.39-6.6c.37-.64.75-1.28,1.14-1.91s.8-1.28,1.21-1.91c.14-.22.28-.43.43-.64.29-.44.59-.87.89-1.29.09-.14.19-.28.29-.41.35-.49.7-1,1.06-1.45a5.32,5.32,0,0,1,.36-.47c.34-.46.7-.91,1.06-1.36a4.23,4.23,0,0,1,.33-.41c.39-.49.8-1,1.21-1.46.1-.13.21-.25.32-.38,1-1.13,2-2.22,3-3.29.11-.11.22-.23.33-.33.34-.36.69-.7,1-1l.72-.7c.26-.25.52-.5.79-.74l1-.92q2.2-2,4.56-3.77c.41-.32.83-.63,1.25-.93s.53-.4.8-.58.53-.38.79-.55c.55-.39,1.1-.77,1.66-1.13s1.34-.86,2-1.28a75.4,75.4,0,0,1,25.25-9.72c.08.47.16.93.25,1.39s.21,1.06.33,1.58.19.82.3,1.22c.23.92.48,1.82.77,2.72s.58,1.78.92,2.65c.16.44.33.88.51,1.31a49.94,49.94,0,0,0,46.17,30.91h12a49.92,49.92,0,0,0,49.28-42,75.8,75.8,0,0,1,62.56,74.69Z"/>
        <path class="cls-5" d="M159.27,238.06A75.4,75.4,0,0,0,134,247.78c-.68.42-1.36.84-2,1.28s-1.11.74-1.66,1.13c-.26.17-.53.35-.79.55s-.53.37-.8.58-.84.61-1.25.93q-2.35,1.78-4.56,3.77l-.35.32-.32.29-.34.31c-.27.24-.53.49-.79.74l-.72.7-.52.52-.52.52-.17.17a1.29,1.29,0,0,1-.16.17c-1,1.07-2,2.16-3,3.29-.11.13-.22.25-.32.38l-.61.72h0l-.59.72h0a4.23,4.23,0,0,0-.33.41c-.36.45-.72.9-1.06,1.36a5.32,5.32,0,0,0-.36.47l-.29.39c-.16.22-.33.44-.49.67l-.28.39c-.1.13-.2.27-.29.41s-.36.5-.53.76l-.36.53c-.15.21-.29.42-.43.64-.41.63-.82,1.27-1.21,1.91l-.27.44c-.21.34-.41.68-.61,1l-.26.44a73.3,73.3,0,0,0-3.39,6.6q-.37.82-.72,1.65c-.24.57-.48,1.13-.71,1.71-.14.36-.28.72-.41,1.09-.24.63-.47,1.26-.69,1.9l-.21.6-.31.94c-.27.85-.53,1.7-.77,2.56q-.15.48-.27,1c-.19.67-.36,1.35-.52,2-.12.48-.23,1-.34,1.45a.43.43,0,0,1,0,.11,1.55,1.55,0,0,0,0,.21c-.06.26-.12.53-.17.79,0,.07,0,.14,0,.21-.08.37-.15.73-.22,1.1-.11.63-.22,1.27-.32,1.91-.06.37-.12.74-.17,1.12-.16,1.08-.29,2.18-.4,3.28l-.09,1c-.08.94-.15,1.89-.19,2.83,0,.26,0,.52,0,.78s0,.74,0,1.12c0,.64,0,1.29,0,1.94v30.35a14.73,14.73,0,0,0,2.93,8.84q.44.56.9,1.08c.15.17.31.34.49.51a15.26,15.26,0,0,0,2.19,1.81c.39.26.8.51,1.21.74s.85.43,1.29.62a14.86,14.86,0,0,0,5.75,1.15h18.72l1.39.12,1.36.13c-.93-6.84-1.79-14.86-2.24-23.33-.74-14.15-.18-26.79,1.65-37.58,2.29-13.49,6.59-24.1,12.8-31.53a32.7,32.7,0,0,1,8-7.89,49,49,0,0,1,9.7-5.49c-.52-1-1-2.09-1.44-3.17h0c-.13-.31-.25-.62-.36-.94-.06-.12-.1-.24-.15-.36-.17-.44-.32-.88-.47-1.32h0c-.1-.29-.2-.58-.29-.88l-.15-.44-.12-.41c-.21-.65-.39-1.29-.55-1.95,0-.12-.07-.24-.1-.36-.11-.4-.21-.81-.3-1.22s-.23-1-.33-1.58-.17-.92-.25-1.39"/>
        <path class="cls-6" d="M242.09,219.93c-.58.3-1.16.59-1.75.86-1.17.55-2.36,1.07-3.58,1.55q-.91.36-1.83.69a58.08,58.08,0,0,1-8.75,2.34,58.54,58.54,0,0,1-20.58-8.14h0a58.91,58.91,0,0,1-27.36-49.79v-35.9a177.9,177.9,0,0,1-23.48,7v28.93a58.91,58.91,0,0,0,27.36,49.79h0v19.5h-8.65a74.43,74.43,0,0,0-14.18,1.33h0c.08.47.16.93.25,1.39s.21,1.06.33,1.58.19.82.3,1.22c0,.12.06.24.1.36.16.66.35,1.3.55,2l.12.41.15.44c.1.3.19.59.3.88,0,0,0,0,0,0,.15.44.3.88.47,1.32s.33.87.51,1.3c-.13-.31-.25-.62-.36-.94.11.32.24.63.37.94h0c.44,1.08.92,2.13,1.44,3.17a64.16,64.16,0,0,1,18.11-4.75,155.75,155.75,0,0,0,30.38-4.27c12.11-3,26.76-8.87,33.2-19.69V218Q243.82,219,242.09,219.93Z"/>
        <path class="cls-7" d="M220,305.31a6.67,6.67,0,1,1-6.67-6.66A6.67,6.67,0,0,1,220,305.31Z"/>
        <path class="cls-7" d="M220,329.43a6.67,6.67,0,1,1-6.67-6.66A6.67,6.67,0,0,1,220,329.43Z"/>
        <path class="cls-7" d="M220,353.55a6.67,6.67,0,1,1-6.67-6.66A6.67,6.67,0,0,1,220,353.55Z"/>
      </g>
    </g>
  </g>
</svg>
